<svg width="18" height="18" viewBox="0 0 18 18" fill="none" xmlns="http://www.w3.org/2000/svg">
<path d="M9.09688 10.0371L9.7727 10.3623L9.09688 10.0371ZM9.48524 9.6258L9.84135 10.2859L9.48524 9.6258ZM16.0139 16.5388L15.3381 16.2135L16.0139 16.5388ZM15.6261 16.95L15.27 16.29L15.6261 16.95ZM16.0139 10.0371L15.3381 10.3623L16.0139 10.0371ZM15.6261 9.6258L15.9822 8.96573L15.6261 9.6258ZM1.98577 10.0371L2.66159 10.3623L1.98577 10.0371ZM2.37413 9.6258L2.73024 10.2859L2.37413 9.6258ZM2.37413 16.95L2.73024 16.29H2.73024L2.37413 16.95ZM1.98577 16.5388L1.30995 16.864H1.30995L1.98577 16.5388ZM8.90278 10.0371L8.22696 10.3623L8.90278 10.0371ZM8.51501 9.6258L8.87111 8.96573L8.51501 9.6258ZM9.09688 6.27242L9.7727 6.59763L9.09688 6.27242ZM9.48524 5.8611L9.84135 6.52116L9.48524 5.8611ZM9.48524 9.42062L9.84135 8.76056L9.48524 9.42062ZM9.09688 9.00935L8.42106 9.33457L9.09688 9.00935ZM16.9028 9.00935L16.227 8.68413L16.9028 9.00935ZM16.515 9.42062L16.1589 8.76056L16.515 9.42062ZM16.9028 6.27242L16.227 6.59763L16.9028 6.27242ZM16.515 5.8611L16.8711 5.20103L16.515 5.8611ZM1.09688 6.27242L1.7727 6.59763L1.09688 6.27242ZM1.48524 5.8611L1.84135 6.52116L1.48524 5.8611ZM1.48524 9.42062L1.84135 8.76056L1.48524 9.42062ZM1.09688 9.00935L0.421062 9.33457L1.09688 9.00935ZM8.90278 9.00935L8.22696 8.68413L8.90278 9.00935ZM8.51501 9.42062L8.1589 8.76056L8.51501 9.42062ZM8.90278 6.27242L8.22696 6.59763L8.90278 6.27242ZM8.51501 5.8611L8.87111 5.20103L8.51501 5.8611ZM15.3611 11.0291V15.5467H16.8611V11.0291H15.3611ZM14.6889 16.3026H9V17.8026H14.6889V16.3026ZM9.75 17.0526V11.0291H8.25V17.0526H9.75ZM10.4219 10.2732H14.6885V8.77322H10.4219V10.2732ZM9.75 11.0291C9.75 10.7538 9.75052 10.59 9.75989 10.4686C9.76867 10.3548 9.78175 10.3435 9.7727 10.3623L8.42106 9.7119C8.31513 9.93203 8.27977 10.1532 8.26433 10.3532C8.24948 10.5457 8.25 10.7772 8.25 11.0291H9.75ZM10.4219 8.77322C10.1861 8.77322 9.9615 8.77257 9.77351 8.78884C9.57535 8.80599 9.35118 8.84595 9.12914 8.96573L9.84135 10.2859C9.80945 10.3031 9.80469 10.2917 9.90285 10.2832C10.0112 10.2739 10.1599 10.2732 10.4219 10.2732V8.77322ZM9.7727 10.3623C9.79193 10.3224 9.8185 10.2982 9.84135 10.2859L9.12914 8.96573C8.81748 9.13387 8.57228 9.39767 8.42106 9.7119L9.7727 10.3623ZM15.3611 15.5467C15.3611 15.8217 15.3605 15.9856 15.3511 16.1068C15.3423 16.2205 15.3292 16.2321 15.3381 16.2135L16.6897 16.864C16.7955 16.6441 16.831 16.4232 16.8466 16.223C16.8615 16.0303 16.8611 15.7988 16.8611 15.5467H15.3611ZM14.6889 17.8026C14.9247 17.8026 15.1494 17.8033 15.3375 17.787C15.5356 17.7699 15.76 17.73 15.9822 17.6101L15.27 16.29C15.302 16.2727 15.3068 16.2841 15.2083 16.2926C15.0997 16.302 14.9509 16.3026 14.6889 16.3026V17.8026ZM15.3381 16.2135C15.3184 16.2545 15.2919 16.2781 15.27 16.29L15.9822 17.6101C16.2948 17.4415 16.539 17.1772 16.6897 16.864L15.3381 16.2135ZM16.8611 11.0291C16.8611 10.777 16.8615 10.5455 16.8466 10.3528C16.831 10.1526 16.7955 9.93175 16.6897 9.7119L15.3381 10.3623C15.3292 10.3438 15.3423 10.3554 15.3511 10.469C15.3605 10.5903 15.3611 10.7541 15.3611 11.0291H16.8611ZM14.6885 10.2732C14.9505 10.2732 15.0995 10.2739 15.2081 10.2833C15.3069 10.2918 15.3021 10.3032 15.27 10.2859L15.9822 8.96573C15.7599 8.84582 15.5353 8.80594 15.3373 8.78883C15.1491 8.77257 14.9244 8.77322 14.6885 8.77322V10.2732ZM16.6897 9.7119C16.539 9.39875 16.2949 9.13442 15.9822 8.96573L15.27 10.2859C15.2918 10.2977 15.3183 10.3213 15.3381 10.3623L16.6897 9.7119ZM9 16.3026H3.31076V17.8026H9V16.3026ZM2.63889 15.5467V11.0291H1.13889V15.5467H2.63889ZM3.31076 10.2732H7.57743V8.77322H3.31076V10.2732ZM2.63889 11.0291C2.63889 10.7538 2.63941 10.59 2.64878 10.4686C2.65756 10.3548 2.67064 10.3435 2.66159 10.3623L1.30995 9.7119C1.20402 9.93203 1.16866 10.1532 1.15322 10.3532C1.13837 10.5457 1.13889 10.7772 1.13889 11.0291H2.63889ZM3.31076 8.77322C3.07496 8.77322 2.85039 8.77257 2.6624 8.78884C2.46424 8.80599 2.24006 8.84595 2.01803 8.96573L2.73024 10.2859C2.69834 10.3031 2.69357 10.2917 2.79174 10.2832C2.90007 10.2739 3.04875 10.2732 3.31076 10.2732V8.77322ZM2.66159 10.3623C2.68082 10.3224 2.70738 10.2982 2.73024 10.2859L2.01803 8.96573C1.70637 9.13387 1.46117 9.39767 1.30995 9.7119L2.66159 10.3623ZM3.31076 16.3026C3.04876 16.3026 2.90008 16.302 2.79175 16.2926C2.6936 16.2841 2.69836 16.2728 2.73024 16.29L2.01803 17.6101C2.24005 17.7299 2.46421 17.7699 2.66238 17.787C2.85038 17.8033 3.07495 17.8026 3.31076 17.8026V16.3026ZM1.13889 15.5467C1.13889 15.7986 1.13837 16.0301 1.15322 16.2226C1.16866 16.4227 1.20401 16.6438 1.30995 16.864L2.66159 16.2135C2.67065 16.2324 2.65756 16.2211 2.64878 16.1072C2.63941 15.9858 2.63889 15.822 2.63889 15.5467H1.13889ZM2.73024 16.29C2.70731 16.2776 2.68078 16.2534 2.66159 16.2135L1.30995 16.864C1.4612 17.1783 1.70645 17.442 2.01803 17.6101L2.73024 16.29ZM9.75 11.0291C9.75 10.777 9.75044 10.5455 9.73547 10.3528C9.71991 10.1526 9.68439 9.93175 9.5786 9.7119L8.22696 10.3623C8.21805 10.3438 8.23114 10.3554 8.23997 10.469C8.24939 10.5903 8.25 10.7541 8.25 11.0291H9.75ZM7.57743 10.2732C7.83941 10.2732 7.9884 10.2739 8.09703 10.2833C8.19575 10.2918 8.19103 10.3032 8.1589 10.2859L8.87111 8.96573C8.64884 8.84582 8.42424 8.80594 8.22616 8.78883C8.038 8.77257 7.81328 8.77322 7.57743 8.77322V10.2732ZM9.5786 9.7119C9.42791 9.39875 9.18378 9.13442 8.87111 8.96573L8.1589 10.2859C8.18074 10.2977 8.20721 10.3213 8.22696 10.3623L9.5786 9.7119ZM16.25 7.26437V8.01731H17.75V7.26437H16.25ZM15.5774 8.77322H10.4219V10.2732H15.5774V8.77322ZM9.75 8.01731V7.26437H8.25V8.01731H9.75ZM10.4219 6.50851H15.5774V5.00851H10.4219V6.50851ZM9.75 7.26437C9.75 6.98912 9.75052 6.82531 9.75989 6.70393C9.76867 6.59014 9.78175 6.57883 9.7727 6.59763L8.42106 5.9472C8.31513 6.16733 8.27977 6.38845 8.26433 6.58852C8.24948 6.78101 8.25 7.01252 8.25 7.26437H9.75ZM10.4219 5.00851C10.1861 5.00851 9.9615 5.00786 9.77351 5.02413C9.57535 5.04128 9.35118 5.08124 9.12914 5.20103L9.84135 6.52116C9.80945 6.53837 9.80469 6.52704 9.90285 6.51854C10.0112 6.50917 10.1599 6.50851 10.4219 6.50851V5.00851ZM9.7727 6.59763C9.79193 6.55768 9.8185 6.53349 9.84135 6.52116L9.12914 5.20103C8.81748 5.36917 8.57228 5.63297 8.42106 5.9472L9.7727 6.59763ZM10.4219 8.77322C10.1599 8.77322 10.0112 8.77256 9.90286 8.76318C9.80471 8.75469 9.80947 8.74336 9.84135 8.76056L9.12914 10.0807C9.35116 10.2005 9.57532 10.2404 9.77349 10.2576C9.96149 10.2739 10.1861 10.2732 10.4219 10.2732V8.77322ZM8.25 8.01731C8.25 8.26918 8.24948 8.50069 8.26433 8.6932C8.27977 8.89327 8.31512 9.11442 8.42106 9.33457L9.7727 8.68413C9.78176 8.70295 9.76867 8.69164 9.75989 8.5778C9.75052 8.4564 9.75 8.29256 9.75 8.01731H8.25ZM9.84135 8.76056C9.81842 8.74818 9.79189 8.72401 9.7727 8.68413L8.42106 9.33457C8.57232 9.64888 8.81756 9.91259 9.12914 10.0807L9.84135 8.76056ZM16.25 8.01731C16.25 8.29231 16.2494 8.45617 16.24 8.5774C16.2311 8.6911 16.218 8.70266 16.227 8.68413L17.5786 9.33457C17.6844 9.11471 17.7199 8.89381 17.7355 8.6936C17.7504 8.50093 17.75 8.26943 17.75 8.01731H16.25ZM15.5774 10.2732C15.8133 10.2732 16.038 10.2739 16.2262 10.2576C16.4243 10.2405 16.6489 10.2006 16.8711 10.0807L16.1589 8.76056C16.191 8.74323 16.1957 8.75464 16.097 8.76318C15.9884 8.77256 15.8394 8.77322 15.5774 8.77322V10.2732ZM16.227 8.68413C16.2072 8.72509 16.1808 8.74873 16.1589 8.76056L16.8711 10.0807C17.1837 9.91204 17.4279 9.6478 17.5786 9.33457L16.227 8.68413ZM17.75 7.26437C17.75 7.01226 17.7504 6.78078 17.7355 6.58812C17.7199 6.3879 17.6844 6.16704 17.5786 5.9472L16.227 6.59763C16.218 6.57912 16.2311 6.59068 16.24 6.70433C16.2494 6.82554 16.25 6.98938 16.25 7.26437H17.75ZM15.5774 6.50851C15.8394 6.50851 15.9884 6.50917 16.097 6.51855C16.1958 6.52708 16.191 6.5385 16.1589 6.52116L16.8711 5.20103C16.6488 5.08111 16.4242 5.04124 16.2262 5.02412C16.038 5.00786 15.8133 5.00851 15.5774 5.00851V6.50851ZM17.5786 5.9472C17.4279 5.63405 17.1838 5.36972 16.8711 5.20103L16.1589 6.52116C16.1807 6.53294 16.2072 6.55659 16.227 6.59763L17.5786 5.9472ZM7.57743 8.77322H2.42188V10.2732H7.57743V8.77322ZM1.75 8.01731V7.26437H0.25V8.01731H1.75ZM2.42188 6.50851H7.57743V5.00851H2.42188V6.50851ZM1.75 7.26437C1.75 6.98912 1.75052 6.82531 1.75989 6.70393C1.76867 6.59014 1.78175 6.57883 1.7727 6.59763L0.421062 5.9472C0.315131 6.16733 0.279773 6.38845 0.264334 6.58852C0.249479 6.78101 0.25 7.01252 0.25 7.26437H1.75ZM2.42188 5.00851C2.18607 5.00851 1.9615 5.00786 1.77351 5.02413C1.57535 5.04128 1.35118 5.08124 1.12914 5.20103L1.84135 6.52116C1.80945 6.53837 1.80469 6.52704 1.90285 6.51854C2.01118 6.50917 2.15986 6.50851 2.42188 6.50851V5.00851ZM1.7727 6.59763C1.79193 6.55768 1.8185 6.53349 1.84135 6.52116L1.12914 5.20103C0.817481 5.36917 0.572277 5.63297 0.421062 5.9472L1.7727 6.59763ZM2.42188 8.77322C2.15987 8.77322 2.01119 8.77256 1.90286 8.76318C1.80471 8.75469 1.80947 8.74336 1.84135 8.76056L1.12914 10.0807C1.35116 10.2005 1.57532 10.2404 1.77349 10.2576C1.96149 10.2739 2.18606 10.2732 2.42188 10.2732V8.77322ZM0.25 8.01731C0.25 8.26918 0.249479 8.50069 0.264333 8.6932C0.27977 8.89327 0.315123 9.11442 0.421062 9.33457L1.7727 8.68413C1.78176 8.70295 1.76867 8.69164 1.75989 8.5778C1.75052 8.4564 1.75 8.29256 1.75 8.01731H0.25ZM1.84135 8.76056C1.81842 8.74818 1.79189 8.72401 1.7727 8.68413L0.421062 9.33457C0.572316 9.64888 0.817558 9.91259 1.12914 10.0807L1.84135 8.76056ZM8.25 8.01731C8.25 8.29231 8.24939 8.45617 8.23997 8.5774C8.23114 8.6911 8.21804 8.70266 8.22696 8.68413L9.5786 9.33457C9.6844 9.11471 9.71991 8.89381 9.73547 8.6936C9.75044 8.50093 9.75 8.26943 9.75 8.01731H8.25ZM7.57743 10.2732C7.81329 10.2732 8.03801 10.2739 8.22618 10.2576C8.42426 10.2405 8.64885 10.2006 8.87111 10.0807L8.1589 8.76056C8.19102 8.74323 8.19573 8.75464 8.09702 8.76318C7.98839 8.77256 7.8394 8.77322 7.57743 8.77322V10.2732ZM8.22696 8.68413C8.20725 8.72509 8.18081 8.74873 8.1589 8.76056L8.87111 10.0807C9.18371 9.91204 9.42787 9.6478 9.5786 9.33457L8.22696 8.68413ZM9.75 7.26437C9.75 7.01226 9.75044 6.78078 9.73547 6.58812C9.71991 6.3879 9.68439 6.16704 9.5786 5.9472L8.22696 6.59763C8.21805 6.57912 8.23114 6.59068 8.23997 6.70433C8.24939 6.82554 8.25 6.98938 8.25 7.26437H9.75ZM7.57743 6.50851C7.83941 6.50851 7.9884 6.50917 8.09703 6.51855C8.19575 6.52708 8.19103 6.5385 8.1589 6.52116L8.87111 5.20103C8.64884 5.08111 8.42424 5.04124 8.22616 5.02412C8.038 5.00786 7.81328 5.00851 7.57743 5.00851V6.50851ZM9.5786 5.9472C9.42791 5.63405 9.18379 5.36972 8.87111 5.20103L8.1589 6.52116C8.18074 6.53294 8.20721 6.55659 8.22696 6.59763L9.5786 5.9472ZM8.25 3.40557V5.75851H9.75V3.40557H8.25ZM9 6.50851H11.2222V5.00851H9V6.50851ZM14.1944 3.40557C14.1944 1.73283 12.9035 0.302631 11.2222 0.302631V1.80263C11.9955 1.80263 12.6944 2.47933 12.6944 3.40557H14.1944ZM11.2222 6.50851C12.9035 6.50851 14.1944 5.07831 14.1944 3.40557H12.6944C12.6944 4.33182 11.9955 5.00851 11.2222 5.00851V6.50851ZM9.75 3.40557C9.75 2.47933 10.4489 1.80263 11.2222 1.80263V0.302631C9.5409 0.302631 8.25 1.73283 8.25 3.40557H9.75ZM9 5.00851H6.77778V6.50851H9V5.00851ZM5.30556 3.40557C5.30556 2.47933 6.0045 1.80263 6.77778 1.80263V0.302631C5.09645 0.302631 3.80556 1.73283 3.80556 3.40557H5.30556ZM6.77778 5.00851C6.0045 5.00851 5.30556 4.33182 5.30556 3.40557H3.80556C3.80556 5.07831 5.09645 6.50851 6.77778 6.50851V5.00851ZM9.75 3.40557C9.75 1.73283 8.4591 0.302631 6.77778 0.302631V1.80263C7.55105 1.80263 8.25 2.47933 8.25 3.40557H9.75Z" fill="white"/>
</svg>
